<svg version="1.0" xmlns="http://www.w3.org/2000/svg" width="1706.667" height="853.333" viewBox="0 0 1280 640"><path d="M208.5 106.1c-74.2 2.4-133.8 7-192.7 15-14.7 2-15.8 2.3-15.8 4.3 0 1.2.7 15.6 1.5 32.1S3 189.6 3 192.3v4.7l7.7 3.8c9 4.3 18.1 12.3 23.3 20.4 5.1 7.8 8.3 18.7 12.5 42.8C66.8 379.4 91 445 126.1 479.9c6.8 6.8 24.7 20.2 36.1 27 35.3 21.1 79.7 30.2 133.5 27.2 94.4-5.3 167.4-32 205.1-75.1 43.1-49.3 77.2-116.7 90.7-179.5 4.1-19.1 10.1-29.8 20.9-37.1 15.2-10.3 40-10.3 55.2 0 10.8 7.3 16.8 18 20.9 37.1 12.4 57.7 39.6 114.4 79.9 166.5 24.8 32 54.3 52 99.6 67.3 44.8 15.2 108.8 23.8 153.8 20.8 48.3-3.2 80.8-14.6 115.7-40.6 21.6-16.1 33.7-31.1 47.5-58.4 19.6-39.1 33.8-89.2 48.5-170.9 4.7-26.1 7.3-35.2 12.6-43.4 4.8-7.4 14.5-15.8 23.2-20l7.7-3.8v-5.2c0-2.9.7-18.6 1.5-34.8.8-16.2 1.5-30.4 1.5-31.6 0-2-1.1-2.3-15.7-4.3-79.8-10.8-169.4-16.1-272.3-16.1-43.6 0-58.6.8-88.5 4.5-54.9 6.9-109.3 18.7-138.4 29.9-4.8 1.9-15.3 6.6-23.2 10.5-16.4 8-28 12-42.4 14.7-8.9 1.7-15.5 1.9-59.5 1.9s-50.6-.2-59.5-1.9c-14.4-2.7-26-6.7-42.4-14.7-7.9-3.9-18.4-8.6-23.2-10.5-35.2-13.6-104-27.1-166.9-32.9-18.1-1.6-94.3-1.9-139.5-.4zM390 143c37.5 2.7 69 10 92.2 21.5 13.2 6.6 19.5 11 29.8 21.4 14.2 14.2 19.7 25.9 24.7 52.1 1.4 7.5 1.8 14.7 1.8 34.5 0 21.8-.3 26.7-2.3 37.8-7.7 42.7-25.4 82.6-51.2 115.2-9.1 11.5-27.6 29.5-36.6 35.6-27.8 18.7-82.8 35.4-131.9 39.9-14.4 1.3-48 1.3-60.3-.1-31.4-3.4-59.7-12.8-80.8-26.9-10.2-6.9-23.7-20.5-34.6-35-32.6-43.6-46.9-86.7-52.9-159.4-3.8-46.6 4.1-73.4 28.4-96.1 25.9-24.4 64.1-37.3 119.8-40.4 20.5-1.2 137.5-1.2 153.9-.1zm668 .9c27.3 2.9 46.4 7.1 64.1 14.1 37 14.7 59.4 37.5 67.6 68.9 7.4 28.6.6 98.7-13.8 142.6-13.8 42-43.8 85.9-71.6 104.6-21 14.2-49.7 23.6-82.2 27-17 1.7-57.9.6-75.6-2.1-48.3-7.4-90-21.1-114.9-37.9-9-6.1-27.5-24.1-36.6-35.6-35.1-44.5-54-98.4-54-153.3.1-28.5 4.3-51.3 12.7-67.5 8.3-16 25.7-31.6 46-41.3 22.2-10.5 57.2-18.4 92.3-20.8 13.1-.8 156.1.2 166 1.3zM88.5 166v6.5h-56l-.3-5.4c-.2-2.9-.1-6 .2-6.7.5-1.2 5.4-1.4 28.3-1.2l27.8.3v6.5zm1159 0v6.5h-56l-.3-5.4c-.2-2.9-.1-6 .2-6.7.5-1.2 5.4-1.4 28.3-1.2l27.8.3v6.5z"/></svg>