<?xml version="1.0" standalone="no"?>
<!DOCTYPE svg PUBLIC "-//W3C//DTD SVG 20010904//EN"
 "http://www.w3.org/TR/2001/REC-SVG-20010904/DTD/svg10.dtd">
<svg version="1.0" xmlns="http://www.w3.org/2000/svg"
 width="1280.000000pt" height="640.000000pt" viewBox="0 0 1280.000000 640.000000"
 preserveAspectRatio="xMidYMid meet">
<metadata>
Created by potrace 1.15, written by Peter Selinger 2001-2017
</metadata>
<g transform="translate(0.000000,640.000000) scale(0.100000,-0.100000)"
fill="#000000" stroke="none">
<path d="M2085 5339 c-742 -24 -1338 -70 -1927 -150 -147 -20 -158 -23 -158
-43 0 -12 7 -156 15 -321 8 -165 15 -321 15 -348 l0 -47 77 -38 c90 -43 181
-123 233 -204 51 -78 83 -187 125 -428 203 -1154 445 -1810 796 -2159 68 -68
247 -202 361 -270 353 -211 797 -302 1335 -272 944 53 1674 320 2051 751 431
493 772 1167 907 1795 41 191 101 298 209 371 152 103 400 103 552 0 108 -73
168 -180 209 -371 124 -577 396 -1144 799 -1665 248 -320 543 -520 996 -673
448 -152 1088 -238 1538 -208 483 32 808 146 1157 406 216 161 337 311 475
584 196 391 338 892 485 1709 47 261 73 352 126 434 48 74 145 158 232 200
l77 38 0 52 c0 29 7 186 15 348 8 162 15 304 15 316 0 20 -11 23 -157 43 -798
108 -1694 161 -2723 161 -436 0 -586 -8 -885 -45 -549 -69 -1093 -187 -1384
-299 -48 -19 -153 -66 -232 -105 -164 -80 -280 -120 -424 -147 -89 -17 -155
-19 -595 -19 -440 0 -506 2 -595 19 -144 27 -260 67 -424 147 -79 39 -184 86
-232 105 -352 136 -1040 271 -1669 329 -181 16 -943 19 -1395 4z m1815 -369
c375 -27 690 -100 922 -215 132 -66 195 -110 298 -214 142 -142 197 -259 247
-521 14 -75 18 -147 18 -345 0 -218 -3 -267 -23 -378 -77 -427 -254 -826 -512
-1152 -91 -115 -276 -295 -366 -356 -278 -187 -828 -354 -1319 -399 -144 -13
-480 -13 -603 1 -314 34 -597 128 -808 269 -102 69 -237 205 -346 350 -326
436 -469 867 -529 1594 -38 466 41 734 284 961 259 244 641 373 1198 404 205
12 1375 12 1539 1z m6680 -9 c273 -29 464 -71 641 -141 370 -147 594 -375 676
-689 74 -286 6 -987 -138 -1426 -138 -420 -438 -859 -716 -1046 -210 -142
-497 -236 -822 -270 -170 -17 -579 -6 -756 21 -483 74 -900 211 -1149 379 -90
61 -275 241 -366 356 -351 445 -540 984 -540 1533 1 285 43 513 127 675 83
160 257 316 460 413 222 105 572 184 923 208 131 8 1561 -2 1660 -13z m-9695
-221 l0 -65 -280 0 -280 0 -3 54 c-2 29 -1 60 2 67 5 12 54 14 283 12 l278 -3
0 -65z m11590 0 l0 -65 -280 0 -280 0 -3 54 c-2 29 -1 60 2 67 5 12 54 14 283
12 l278 -3 0 -65z"/>
</g>
</svg>
